<svg width="70" height="70" viewBox="4 3 70 70" fill="none" xmlns="http://www.w3.org/2000/svg">
<path d="M35 4.375C18.0879 4.375 4.375 18.0879 4.375 35C4.375 51.9121 18.0879 65.625 35 65.625C51.9121 65.625 65.625 51.9121 65.625 35C65.625 18.0879 51.9121 4.375 35 4.375ZM46.416 47.6875C43.6406 50.2441 39.8535 51.748 35.335 51.748C28.793 51.748 23.1328 47.9951 20.3779 42.5264C19.2432 40.2637 18.5938 37.707 18.5938 35C18.5938 32.293 19.2432 29.7363 20.3779 27.4736C23.1328 21.998 28.793 18.2451 35.335 18.2451C39.8467 18.2451 43.6338 19.9063 46.5391 22.6064L41.7402 27.4121C40.0039 25.751 37.7959 24.9102 35.3418 24.9102C30.9805 24.9102 27.2891 27.8564 25.9697 31.8145C25.6348 32.8193 25.4434 33.8926 25.4434 35C25.4434 36.1074 25.6348 37.1807 25.9697 38.1855C27.2891 42.1436 30.9805 45.0898 35.335 45.0898C37.5908 45.0898 39.5049 44.4951 41.002 43.4902C42.7793 42.3008 43.9551 40.5303 44.3447 38.4316H35.335V31.9512H51.1055C51.3037 33.0518 51.4062 34.1934 51.4062 35.376C51.4062 40.4824 49.5811 44.7686 46.416 47.6875Z" fill="#EB4646"/>
</svg>
